<?xml version="1.0" standalone="no"?>
<!DOCTYPE svg PUBLIC "-//W3C//DTD SVG 20010904//EN"
 "http://www.w3.org/TR/2001/REC-SVG-20010904/DTD/svg10.dtd">
<svg version="1.0" xmlns="http://www.w3.org/2000/svg"
 width="200.000000pt" height="200.000000pt" viewBox="0 0 300.000000 300.000000"
 preserveAspectRatio="xMidYMid meet">
<metadata>
Created by potrace 1.10, written by Peter Selinger 2001-2011
</metadata>
<g transform="translate(0.000000,300.000000) scale(0.100000,-0.100000)"
fill="green" stroke="none">
<path d="M1756 2002 c-5 -9 30 -227 40 -243 13 -21 21 4 14 43 -11 55 -20 168
-14 168 17 0 90 -47 126 -81 24 -22 50 -44 58 -49 10 -6 5 -12 -21 -23 -20 -8
-45 -27 -57 -42 -29 -37 -30 -105 -2 -130 28 -25 25 -35 -9 -35 -21 0 -36 9
-56 36 -34 45 -42 38 -16 -15 26 -50 39 -53 231 -49 169 3 168 3 121 97 -42
85 -86 137 -140 164 -25 13 -66 43 -91 66 -71 68 -169 117 -184 93z m299 -227
c19 -18 25 -35 25 -68 0 -57 -34 -92 -89 -92 -45 0 -69 17 -88 63 -11 27 -11
37 1 66 17 41 39 55 89 56 27 0 45 -7 62 -25z m75 -81 c0 -7 -7 -20 -16 -29
-13 -12 -14 -19 -5 -28 18 -18 13 -27 -14 -27 -30 0 -30 0 -4 51 11 23 18 48
14 56 -4 13 -3 14 10 3 8 -7 15 -18 15 -26z"/>
<path d="M1936 1758 c-25 -35 -20 -83 10 -107 34 -27 57 -26 90 2 33 28 37 76
9 107 -26 29 -89 27 -109 -2z m99 -17 c-6 -5 -21 -11 -35 -14 -24 -4 -24 -4 3
-6 34 -1 36 -21 2 -21 -14 0 -25 -4 -25 -10 0 -5 14 -10 30 -10 17 0 30 -4 30
-10 0 -5 -20 -10 -45 -10 l-45 0 0 45 0 45 47 0 c29 0 43 -4 38 -9z"/>
<path d="M1545 1921 c-8 -25 -12 -26 -60 -5 -20 8 -56 14 -78 12 -35 -2 -43
-7 -45 -25 -3 -21 -9 -23 -57 -23 -69 0 -103 -13 -107 -41 -2 -17 -14 -25 -50
-34 -55 -14 -78 -30 -78 -55 0 -11 -17 -28 -42 -42 -24 -13 -49 -37 -57 -53
-7 -17 -21 -39 -31 -50 -57 -65 -110 -208 -110 -297 0 -63 44 -145 98 -183 56
-39 137 -42 194 -7 50 31 82 98 73 152 -18 107 -137 153 -200 78 -45 -53 -26
-129 35 -143 31 -7 80 27 80 54 0 24 -36 55 -55 48 -20 -8 -19 -25 2 -23 25 2
28 -31 4 -44 -17 -8 -24 -7 -41 10 -25 25 -25 31 1 64 26 33 62 34 94 1 34
-33 34 -84 -1 -118 -75 -75 -188 -15 -186 99 1 98 90 179 209 191 l54 6 -27
18 c-20 13 -28 28 -31 55 -5 45 -13 59 -13 21 0 -39 -17 -77 -35 -77 -25 0
-87 -35 -119 -66 -78 -78 -93 -197 -33 -263 15 -16 17 -22 7 -19 -8 2 -28 24
-45 47 -27 38 -30 50 -29 114 1 100 34 167 120 246 106 97 233 152 392 170 95
10 123 22 36 15 -191 -17 -343 -83 -464 -204 l-75 -75 45 62 c25 35 56 78 70
97 14 19 41 46 60 58 19 13 41 35 48 50 8 18 23 28 48 33 44 8 74 25 74 43 0
17 42 32 90 32 27 0 48 8 70 26 30 26 33 27 87 14 49 -11 59 -10 88 6 33 18
34 18 98 -15 57 -29 66 -37 77 -74 13 -45 27 -67 42 -67 5 0 4 10 -3 21 -6 12
-14 42 -18 67 -5 39 -10 47 -33 53 -15 4 -41 17 -58 29 -17 12 -48 24 -69 27
-33 5 -40 2 -46 -16z"/>
<path d="M1544 1739 c74 -8 158 -32 192 -54 13 -8 24 -29 27 -52 12 -75 63
-101 201 -104 53 -1 96 -3 96 -5 0 -2 -16 -11 -36 -19 -44 -18 -184 -30 -247
-21 l-45 7 16 31 c11 23 12 33 4 36 -7 2 -12 13 -12 25 0 32 -11 44 -45 53
-17 4 -35 10 -41 15 -16 13 -61 -16 -128 -81 -33 -33 -68 -60 -76 -60 -8 0
-22 15 -31 33 -23 48 -188 156 -197 128 -2 -6 -15 -11 -28 -11 -30 0 -64 -17
-64 -31 0 -5 11 -2 25 7 13 9 33 13 44 9 10 -3 22 -1 25 4 4 6 43 -15 89 -47
70 -50 82 -62 85 -90 3 -31 4 -32 53 -32 36 0 49 4 49 14 0 8 29 41 65 73 48
43 73 58 97 59 52 3 68 -11 66 -57 -1 -33 -8 -46 -40 -73 l-38 -33 132 -7
c187 -10 285 12 383 88 18 14 5 15 -151 16 -169 0 -172 0 -195 24 -13 14 -29
42 -35 63 -9 33 -17 40 -67 59 -73 29 -147 44 -200 43 -32 -1 -26 -3 27 -10z"/>
<path d="M1220 1611 c0 -6 24 -25 54 -43 76 -46 83 -61 62 -144 -15 -60 -15
-69 -1 -90 21 -32 19 -36 -12 -32 -30 3 -30 -1 -17 111 4 32 2 53 -7 63 -18
22 -89 70 -116 78 -42 13 -23 -11 40 -53 l64 -41 -15 -86 c-13 -74 -14 -87 -1
-95 19 -12 189 -12 189 0 0 15 -52 52 -82 58 -33 6 -32 2 -12 97 20 89 19 90
-70 148 -61 39 -76 45 -76 29z"/>
<path d="M1593 1558 c-82 -73 -82 -75 -38 -160 64 -123 59 -119 153 -123 74
-2 81 -1 72 15 -10 18 -68 50 -92 50 -7 0 -28 26 -45 58 l-32 57 52 53 c28 28
46 52 41 52 -17 0 -87 -58 -101 -83 -15 -27 -17 -57 -3 -57 6 0 10 -6 10 -13
0 -8 14 -33 30 -55 28 -39 29 -42 10 -42 -12 0 -24 9 -29 23 -5 12 -23 46 -40
75 -17 29 -31 58 -31 64 0 7 25 35 55 64 48 46 67 74 50 74 -3 0 -31 -23 -62
-52z"/>
<path d="M1390 1455 c0 -2 14 -12 31 -21 l31 -16 -28 -29 c-15 -16 -26 -30
-23 -32 2 -1 16 -8 30 -16 14 -7 33 -26 43 -42 15 -25 23 -29 63 -29 41 0 44
2 32 16 -8 9 -31 24 -53 33 l-39 17 26 29 c24 28 24 31 9 57 -15 25 -47 38
-98 38 -13 0 -24 -2 -24 -5z"/>
<path d="M1710 1435 c0 -3 12 -22 26 -41 23 -29 32 -34 68 -34 22 0 64 -3 93
-6 47 -6 53 -9 58 -35 4 -16 10 -29 14 -29 10 0 37 31 43 49 3 11 19 14 64 13
l59 -2 -28 24 c-31 28 -39 30 -227 46 -74 6 -143 13 -152 16 -10 3 -18 2 -18
-1z"/>
</g>
</svg>
